{"title":"Hansel &amp; Gretel - Witch Hunters 2013 Unrated 720p BluRay QEB","uid":8835986,"size":1840431259,"categoryP":"video","categoryS":"hd___movies","magnet":"?xt=urn:btih:50c003831aa8cb6dc62c694b12101a39bbd4bf5f&amp;dn=Hansel+%26amp%3B+Gretel+-+Witch+Hunters+2013+Unrated+720p+BluRay+QEB&amp;tr=udp%3A%2F%2Ftracker.openbittorrent.com%3A80&amp;tr=udp%3A%2F%2Fopen.demonii.com%3A1337&amp;tr=udp%3A%2F%2Ftracker.coppersurfer.tk%3A6969&amp;tr=udp%3A%2F%2Fexodus.desync.com%3A6969","seeders":1,"leechers":0,"uploader":"SaM","files":10,"time":1377115423,"description":"http:/imdb.com/title/tt1428538/\n\nPlot: Hansel &amp; Gretel are bounty hunters who track and kill witches all over the\n world. As the fabled Blood Moon approaches, the siblings encounter a new form of\n evil that might hold a secret to their past.\n\nSCREENSHOTS COMPARISION TO OTHERS(usually in worst case rare scenarios): &lt;a href=&quot;\nhttp://screenshotcomparison.com/comparison/36779&quot; rel=&quot;nofollow&quot; target=&quot;_NEW&quot;&gt;\nhttp://screenshotcomparison.com/comparison/36779&lt;/a&gt;\n\nSUBTITLES:\nENGLISH, POLISH others from other BluRay releases on subscene.com\n\nGeneral\nComplete name                  : Hansel_&amp;_Gretel_-_Witch_Hunters_2013_Unrated_720p_BluRay_QEBSx_AAC20_MP4-FASM.mp4\nFormat                         : MPEG-4\nFormat profile                 : Base Media\nCodec ID                       : isom\nFile size                      : 1.70 GiB\nDuration                       : 1h 37mn\nOverall bit rate mode          : Variable\nOverall bit rate               : 2 478 Kbps\nEncoded date                   : UTC 2013-07-19 07:50:19\nTagged date                    : UTC 2013-07-19 07:50:19\n\nVideo\nID                             : 1\nFormat                         : AVC\nFormat/Info                    : Advanced Video Codec\nFormat profile                 : &lt;a class=&quot;__cf_email__&quot; href=&quot;/cdn-cgi/l/email-protection&quot; data-cfemail=&quot;367e5f515e767a051807&quot;&gt;[email&amp;#160;protected]&lt;/a&gt;&lt;script cf-hash='f9e31' type=&quot;text/javascript&quot;&gt;\n/* &lt;![CDATA[ */!function(){try{var t=&quot;currentScript&quot;in document?document.currentScript:function(){for(var t=document.getElementsByTagName(&quot;script&quot;),e=t.length;e--;)if(t[e].getAttribute(&quot;cf-hash&quot;))return t[e]}();if(t&amp;&amp;t.previousSibling){var e,r,n,i,c=t.previousSibling,a=c.getAttribute(&quot;data-cfemail&quot;);if(a){for(e=&quot;&quot;,r=parseInt(a.substr(0,2),16),n=2;a.length-n;n+=2)i=parseInt(a.substr(n,2),16)^r,e+=String.fromCharCode(i);e=document.createTextNode(e),c.parentNode.replaceChild(e,c)}}}catch(u){}}();/* ]]&gt; */&lt;/script&gt;\nFormat settings, CABAC         : Yes\nFormat settings, ReFrames      : 5 frames\nCodec ID                       : avc1\nCodec ID/Info                  : Advanced Video Coding\nDuration                       : 1h 37mn\nBit rate                       : 2 331 Kbps\nMaximum bit rate               : 7 312 Kbps\nWidth                          : 1 280 pixels\nHeight                         : 528 pixels\nDisplay aspect ratio           : 2.40:1\nFrame rate mode                : Constant\nFrame rate                     : 23.976 fps\nColor space                    : YUV\nChroma subsampling             : 4:2:0\nBit depth                      : 8 bits\nScan type                      : Progressive\nBits/(Pixel*Frame)             : 0.144\nStream size                    : 1.59 GiB (94%)\nTitle                          : 1280x528.264#trackID=1:fps=23.976 - Imported with GPAC 0.5.0-rev4065\nWriting library                : FASM Quality Enhancer Bitrate Squeezer X.2 (c)2013 Fachman\nEncoded date                   : UTC 2013-07-19 07:50:19\nTagged date                    : UTC 2013-07-19 07:51:05\nColor primaries                : BT.709\nTransfer characteristics       : BT.709\nMatrix coefficients            : BT.709\n\nAudio\nID                             : 2\nFormat                         : AAC\nFormat/Info                    : Advanced Audio Codec\nFormat profile                 : LC\nCodec ID                       : 40\nDuration                       : 1h 37mn\nBit rate mode                  : Variable\nBit rate                       : 144 Kbps\nMaximum bit rate               : 201 Kbps\nChannel(s)                     : 2 channels\nChannel positions              : Front: L R\nSampling rate                  : 48.0 KHz\nCompression mode               : Lossy\nStream size                    : 101 MiB (6%)\nLanguage                       : English\nEncoded date                   : UTC 2013-07-19 07:51:02\nTagged date                    : UTC 2013-07-19 07:51:05\n\nMenu\n00:00:00.000                   : : Chapter01\n00:09:02.333                   : : Chapter02\n00:16:12.805                   : : Chapter03\n00:26:24.958                   : : Chapter04\n00:35:18.033                   : : Chapter05\n00:46:34.750                   : : Chapter06\n00:57:17.726                   : : Chapter07\n01:04:26.279                   : : Chapter08\n01:09:44.389                   : : Chapter09\n01:14:10.571                   : : Chapter10\n01:22:05.003                   : : Chapter11\n01:29:02.254                   : : Chapter12\n &lt;a href=&quot;\nhttp://img10.imageshack.us/img10/8162/mo2d.png&quot; rel=&quot;nofollow&quot; target=&quot;_NEW&quot;&gt;\nhttp://img10.imageshack.us/img10/8162/mo2d.png&lt;/a&gt;\n &lt;a href=&quot;\nhttp://img823.imageshack.us/img823/2778/1g7j.png&quot; rel=&quot;nofollow&quot; target=&quot;_NEW&quot;&gt;\nhttp://img823.imageshack.us/img823/2778/1g7j.png&lt;/a&gt;","torrent":{"xt":"urn:btih:50c003831aa8cb6dc62c694b12101a39bbd4bf5f","amp;dn":"Hansel+%26amp%3B+Gretel+-+Witch+Hunters+2013+Unrated+720p+BluRay+QEB","amp;tr":["udp%3A%2F%2Ftracker.openbittorrent.com%3A80","udp%3A%2F%2Fopen.demonii.com%3A1337","udp%3A%2F%2Ftracker.coppersurfer.tk%3A6969","udp%3A%2F%2Fexodus.desync.com%3A6969"],"infoHash":"50c003831aa8cb6dc62c694b12101a39bbd4bf5f","infoHashBuffer":{"type":"Buffer","data":[80,192,3,131,26,168,203,109,198,44,105,75,18,16,26,57,187,212,191,95]},"announce":[],"urlList":[]}}